<svg width="52" height="52" viewBox="0 0 52 52" fill="none" xmlns="http://www.w3.org/2000/svg">
<path fill-rule="evenodd" clip-rule="evenodd" d="M5.19669 14.4779C5.14877 14.5827 5.26088 14.2557 5.29341 14.1454L5.41915 13.706C6.72792 9.20631 8.03231 4.70368 9.33757 0.19812L51.3692 0.279569L4.91797 36.1762L26.1455 11.8749L10.2019 11.9154C9.90469 11.9162 9.6119 11.9116 9.31471 11.9359C7.42606 12.0883 5.7858 13.1793 5.19669 14.4779Z" fill="#636463"/>
<path d="M5.19669 14.4779C5.14877 14.5827 5.26088 14.2557 5.29341 14.1454L5.41915 13.706C6.72792 9.20631 8.03231 4.70368 9.33757 0.19812L51.3692 0.279568L4.91797 36.1762L26.1455 11.8749L10.2019 11.9154C9.90469 11.9162 9.61189 11.9116 9.31471 11.9359C7.42606 12.0883 5.7858 13.1793 5.19669 14.4779Z" stroke="#FFFCFC" stroke-width="0.395675" stroke-miterlimit="22.926"/>
<path fill-rule="evenodd" clip-rule="evenodd" d="M49.0783 24.8101C49.1253 24.7052 47.8086 32.4604 45.4834 40.4766L1.61719 40.7092L48.9934 4.25583L27.7606 28.7852L43.7073 28.7413C44.0023 28.7413 44.2964 28.748 44.5923 28.7221C46.4823 28.5688 48.4901 26.1095 49.0783 24.8101Z" fill="#D22F14"/>
<path d="M49.0783 24.8101C49.1253 24.7052 47.8086 32.4604 45.4834 40.4766L1.61719 40.7092L48.9934 4.25583L27.7606 28.7852L43.7073 28.7413C44.0023 28.7413 44.2964 28.748 44.5923 28.7221C46.4823 28.5688 48.4901 26.1095 49.0783 24.8101Z" stroke="#FFFCFC" stroke-width="0.395675" stroke-miterlimit="22.926"/>
<path fill-rule="evenodd" clip-rule="evenodd" d="M7.46359 51.8905H0L5.15861 45.2322H1.7361L1.98625 43.3935H9.0955L3.94699 50.0385H7.71242L7.46359 51.8905ZM8.87304 51.8905H14.047L14.302 49.9858H11.3728L11.5667 48.5536H14.3297L14.5755 46.7296H11.8128L12.0107 45.2556H14.9399L15.191 43.3935H10.0174L8.87304 51.8905ZM15.569 51.8905L16.7143 43.3935H18.9353L21.5361 47.7633C21.5863 47.8515 21.6606 48.0302 21.7678 48.2997C21.872 48.5703 21.981 48.8882 22.1006 49.2607C22.1015 48.9099 22.1107 48.5975 22.1261 48.3201C22.1415 48.0457 22.1639 47.8022 22.1947 47.59L22.7592 43.394H24.9692L23.824 51.8909H21.6131L19.0162 47.5019C18.9621 47.4125 18.8834 47.2341 18.7792 46.9664C18.6759 46.6957 18.566 46.3787 18.4504 46.017C18.4464 46.3729 18.4372 46.6882 18.424 46.9635C18.4077 47.2371 18.384 47.4806 18.3537 47.6948L17.7901 51.8909L15.569 51.8905ZM25.6924 51.8905L26.8368 43.3935H29.1628L28.0185 51.8905H25.6924ZM31.0919 51.8905L31.9655 45.4001H30.0711L30.3437 43.3935H36.4303L36.1587 45.4001H34.2674L33.3916 51.8905H31.0919ZM36.4097 51.8905H38.7111L39.1767 48.4312H42.2449L41.7793 51.8905H44.0869L45.2313 43.3935H42.9237L42.4788 46.6953H39.4115L39.8555 43.3935H37.5527L36.4097 51.8905Z" fill="#B2B3B2"/>
</svg>
