<svg width="16" height="16" viewBox="0 0 16 16" fill="none" xmlns="http://www.w3.org/2000/svg">
<path d="M13.3346 14.6667H12.0013V13.3333C12.0013 12.8029 11.7906 12.2942 11.4155 11.9191C11.0404 11.544 10.5317 11.3333 10.0013 11.3333H6.0013C5.47087 11.3333 4.96216 11.544 4.58709 11.9191C4.21202 12.2942 4.0013 12.8029 4.0013 13.3333V14.6667H2.66797V13.3333C2.66797 12.4493 3.01916 11.6014 3.64428 10.9763C4.2694 10.3512 5.11725 10 6.0013 10H10.0013C10.8854 10 11.7332 10.3512 12.3583 10.9763C12.9834 11.6014 13.3346 12.4493 13.3346 13.3333V14.6667ZM8.0013 8.66666C7.47601 8.66666 6.95587 8.5632 6.47057 8.36218C5.98527 8.16116 5.54431 7.86653 5.17287 7.49509C4.80144 7.12366 4.5068 6.6827 4.30578 6.1974C4.10477 5.7121 4.0013 5.19195 4.0013 4.66666C4.0013 4.14138 4.10477 3.62123 4.30578 3.13593C4.5068 2.65063 4.80144 2.20967 5.17287 1.83824C5.54431 1.4668 5.98527 1.17216 6.47057 0.971146C6.95587 0.770127 7.47601 0.666664 8.0013 0.666664C9.06217 0.666664 10.0796 1.08809 10.8297 1.83824C11.5799 2.58838 12.0013 3.6058 12.0013 4.66666C12.0013 5.72753 11.5799 6.74495 10.8297 7.49509C10.0796 8.24524 9.06217 8.66666 8.0013 8.66666ZM8.0013 7.33333C8.70855 7.33333 9.38682 7.05238 9.88692 6.55228C10.387 6.05219 10.668 5.37391 10.668 4.66666C10.668 3.95942 10.387 3.28114 9.88692 2.78105C9.38682 2.28095 8.70855 2 8.0013 2C7.29406 2 6.61578 2.28095 6.11568 2.78105C5.61559 3.28114 5.33464 3.95942 5.33464 4.66666C5.33464 5.37391 5.61559 6.05219 6.11568 6.55228C6.61578 7.05238 7.29406 7.33333 8.0013 7.33333Z" fill="#62636C"/>
</svg>
