<svg width="16" height="16" viewBox="0 0 16 16" fill="none" xmlns="http://www.w3.org/2000/svg">
<path d="M3.9987 12H11.9987V4.00004H3.9987V12ZM9.33203 13.3334H6.66536V14.6667H5.33203V13.3334H3.33203C3.15522 13.3334 2.98565 13.2631 2.86063 13.1381C2.7356 13.0131 2.66536 12.8435 2.66536 12.6667V10.6667H1.33203V9.33337H2.66536V6.66671H1.33203V5.33337H2.66536V3.33337C2.66536 3.15656 2.7356 2.98699 2.86063 2.86197C2.98565 2.73695 3.15522 2.66671 3.33203 2.66671H5.33203V1.33337H6.66536V2.66671H9.33203V1.33337H10.6654V2.66671H12.6654C12.8422 2.66671 13.0117 2.73695 13.1368 2.86197C13.2618 2.98699 13.332 3.15656 13.332 3.33337V5.33337H14.6654V6.66671H13.332V9.33337H14.6654V10.6667H13.332V12.6667C13.332 12.8435 13.2618 13.0131 13.1368 13.1381C13.0117 13.2631 12.8422 13.3334 12.6654 13.3334H10.6654V14.6667H9.33203V13.3334ZM5.33203 5.33337H10.6654V10.6667H5.33203V5.33337Z" fill="#62636C"/>
</svg>
