<svg width="16" height="16" viewBox="0 0 16 16" fill="none" xmlns="http://www.w3.org/2000/svg">
<path d="M9.33203 13.3333H6.66536V14.6667H5.33203V13.3333H3.33203C3.15522 13.3333 2.98565 13.2631 2.86063 13.1381C2.7356 13.013 2.66536 12.8435 2.66536 12.6667V10.6667H1.33203V9.33333H2.66536V6.66667H1.33203V5.33333H2.66536V3.33333C2.66536 3.15652 2.7356 2.98695 2.86063 2.86193C2.98565 2.7369 3.15522 2.66667 3.33203 2.66667H5.33203V1.33333H6.66536V2.66667H9.33203V1.33333H10.6654V2.66667H12.6654C12.8422 2.66667 13.0117 2.7369 13.1368 2.86193C13.2618 2.98695 13.332 3.15652 13.332 3.33333V5.33333H14.6654V6.66667H13.332V9.33333H14.6654V10.6667H13.332V12.6667C13.332 12.8435 13.2618 13.013 13.1368 13.1381C13.0117 13.2631 12.8422 13.3333 12.6654 13.3333H10.6654V14.6667H9.33203V13.3333ZM4.66536 4.66667V7.33333H7.33203V4.66667H4.66536Z" fill="#D43900"/>
</svg>
