<svg width="16" height="16" viewBox="0 0 16 16" fill="none" xmlns="http://www.w3.org/2000/svg">
<path d="M12.6903 4.252C12.7657 4.17679 12.8581 4.12074 12.9596 4.08855C13.0611 4.05636 13.1689 4.04896 13.2739 4.06698C13.3789 4.085 13.478 4.12791 13.563 4.19211C13.6479 4.25631 13.7163 4.33994 13.7623 4.436C14.1465 5.24101 14.292 6.13924 14.1816 7.02438C14.0712 7.90951 13.7095 8.74448 13.1394 9.43045C12.5692 10.1164 11.8144 10.6247 10.9644 10.895C10.1144 11.1654 9.20468 11.1866 8.34299 10.956L5.78033 13.5193C5.34272 13.9569 4.7492 14.2028 4.13033 14.2028C3.51146 14.2028 2.91793 13.9569 2.48033 13.5193C2.04272 13.0817 1.79688 12.4882 1.79688 11.8693C1.79688 11.2505 2.04272 10.6569 2.48033 10.2193L5.04366 7.656C4.81311 6.79432 4.83426 5.88462 5.10463 5.03459C5.37499 4.18456 5.88324 3.42978 6.56921 2.85961C7.25518 2.28944 8.09015 1.92775 8.97528 1.81735C9.86042 1.70695 10.7587 1.85246 11.5637 2.23667C11.6598 2.28272 11.7435 2.35115 11.8077 2.43622C11.8719 2.52129 11.9148 2.62052 11.9328 2.72558C11.9507 2.83065 11.9432 2.93849 11.9109 3.04006C11.8786 3.14163 11.8224 3.23397 11.747 3.30933L10.023 5.034C9.90156 5.15973 9.83436 5.32814 9.83588 5.50293C9.8374 5.67773 9.90751 5.84494 10.0311 5.96855C10.1547 6.09215 10.3219 6.16226 10.4967 6.16378C10.6715 6.1653 10.8399 6.09811 10.9657 5.97667L12.6903 4.252ZM11.9083 6.91933C11.7232 7.10755 11.5026 7.25726 11.2593 7.35981C11.0161 7.46236 10.7549 7.51573 10.4909 7.51683C10.2268 7.51794 9.96523 7.46676 9.72109 7.36625C9.47696 7.26575 9.25514 7.11789 9.06843 6.93123C8.88172 6.74457 8.73382 6.52278 8.63326 6.27867C8.53269 6.03456 8.48145 5.77295 8.4825 5.50894C8.48354 5.24493 8.53684 4.98374 8.63934 4.74043C8.74183 4.49712 8.89148 4.27652 9.07966 4.09133L10.023 3.148C9.45081 3.0662 8.86719 3.13453 8.32938 3.34629C7.79156 3.55804 7.31803 3.90595 6.95521 4.35589C6.59239 4.80584 6.35275 5.34236 6.2598 5.91284C6.16685 6.48331 6.22378 7.06816 6.42499 7.61C6.46929 7.72953 6.47838 7.85924 6.45121 7.98378C6.42403 8.10832 6.36172 8.22246 6.27166 8.31267L3.42299 11.162C3.2354 11.3495 3.12997 11.6039 3.12991 11.8691C3.12985 12.1343 3.23515 12.3887 3.42266 12.5763C3.61017 12.7639 3.86452 12.8694 4.12976 12.8694C4.395 12.8695 4.6494 12.7642 4.83699 12.5767L7.68633 9.72733C7.77659 9.63715 7.89085 9.57476 8.01552 9.54758C8.14019 9.5204 8.27005 9.52957 8.38966 9.574C8.93151 9.77522 9.51635 9.83214 10.0868 9.73919C10.6573 9.64624 11.1938 9.4066 11.6438 9.04379C12.0937 8.68097 12.4416 8.20743 12.6534 7.66962C12.8651 7.1318 12.9335 6.54818 12.8517 5.976L11.9083 6.91933Z" fill="#62636C"/>
</svg>
