<svg width="16" height="16" viewBox="0 0 16 16" fill="none" xmlns="http://www.w3.org/2000/svg">
<path d="M12.8329 4.58133C12.912 4.50227 13.0096 4.44436 13.1169 4.41293C13.2242 4.38149 13.3377 4.37755 13.4469 4.40145C13.5561 4.42535 13.6576 4.47633 13.7419 4.5497C13.8263 4.62307 13.8908 4.71648 13.9296 4.82133C14.2397 5.65421 14.3055 6.55831 14.1193 7.42732C13.9332 8.29633 13.5028 9.09412 12.8787 9.72691C12.2547 10.3597 11.463 10.8012 10.5967 10.9994C9.73032 11.1976 8.8254 11.1444 7.98827 10.846L5.31294 13.5213C5.12721 13.7071 4.90671 13.8544 4.66404 13.9549C4.42137 14.0554 4.16127 14.1072 3.89861 14.1072C3.63594 14.1072 3.37585 14.0554 3.13318 13.9549C2.8905 13.8544 2.67001 13.7071 2.48427 13.5213C2.29854 13.3356 2.15121 13.1151 2.05069 12.8724C1.95017 12.6298 1.89844 12.3697 1.89844 12.107C1.89844 11.8443 1.95017 11.5842 2.05069 11.3416C2.15121 11.0989 2.29854 10.8784 2.48427 10.6927L5.15961 8.01733C4.86103 7.18085 4.80736 6.27654 5.00489 5.41062C5.20243 4.5447 5.64297 3.75313 6.27477 3.12889C6.90657 2.50466 7.70338 2.07368 8.57162 1.88658C9.43985 1.69948 10.3435 1.76404 11.1763 2.07266C11.2811 2.11146 11.3745 2.17601 11.4479 2.26036C11.5213 2.34471 11.5723 2.44616 11.5962 2.55537C11.6201 2.66458 11.6161 2.77805 11.5847 2.88534C11.5532 2.99262 11.4953 3.09028 11.4163 3.16933L9.84561 4.74C9.65801 4.9275 9.55258 5.18185 9.55252 5.44709C9.55246 5.71233 9.65777 5.96673 9.84527 6.15433C10.0328 6.34192 10.2871 6.44735 10.5524 6.44741C10.8176 6.44748 11.072 6.34217 11.2596 6.15466L12.8329 4.58133Z" fill="#D43900"/>
</svg>
