<svg width="16" height="16" viewBox="0 0 16 16" fill="none" xmlns="http://www.w3.org/2000/svg">
<path d="M12.0194 11.0779L14.8745 13.933L13.9317 14.8758L11.0766 12.0207C10.05 12.842 8.74803 13.3333 7.33203 13.3333C4.02003 13.3333 1.33203 10.6453 1.33203 7.33334C1.33203 4.02134 4.02003 1.33334 7.33203 1.33334C10.644 1.33334 13.332 4.02134 13.332 7.33334C13.332 8.74934 12.8407 10.0513 12.0194 11.0779ZM10.6818 10.5832C11.497 9.74307 11.9987 8.59707 11.9987 7.33334C11.9987 4.755 9.91036 2.66667 7.33203 2.66667C4.7537 2.66667 2.66536 4.755 2.66536 7.33334C2.66536 9.91167 4.7537 12 7.33203 12C8.59576 12 9.74176 11.4983 10.5819 10.6831L10.6818 10.5832Z" fill="#62636C"/>
</svg>
